<svg width="69" height="30" viewBox="0 0 69 30" fill="none" xmlns="http://www.w3.org/2000/svg">
<path d="M23.16 10.84V15.22H29.5V17.28H23.16V23H20.76V8.76H29.98V10.84H23.16ZM32.042 23V8.76H34.322V23H32.042ZM40.8373 23.24C39.664 23.24 38.7507 22.8867 38.0973 22.18C37.4573 21.4733 37.1373 20.4333 37.1373 19.06V12.84H39.4173V18.86C39.4173 20.5533 40.104 21.4 41.4773 21.4C42.1573 21.4 42.7107 21.1467 43.1373 20.64C43.5773 20.1333 43.7973 19.4133 43.7973 18.48V12.84H46.0773V23H43.9173V21.68H43.8773C43.544 22.16 43.1173 22.54 42.5973 22.82C42.0773 23.1 41.4907 23.24 40.8373 23.24ZM57.4952 23H54.8152L52.4952 19.24H52.4552L50.1352 23H47.4552L51.0752 17.74L47.7152 12.84H50.3752L52.4552 16.14H52.4952L54.5752 12.84H57.2352L53.8752 17.74L57.4952 23ZM63.0027 12.54C64.016 12.54 64.896 12.76 65.6427 13.2C66.4027 13.64 66.9827 14.2667 67.3827 15.08C67.796 15.88 68.0027 16.8267 68.0027 17.92C68.0027 19.0133 67.796 19.9667 67.3827 20.78C66.9827 21.58 66.4027 22.2 65.6427 22.64C64.896 23.08 64.016 23.3 63.0027 23.3C61.9893 23.3 61.1027 23.08 60.3427 22.64C59.5827 22.2 58.996 21.58 58.5827 20.78C58.1827 19.9667 57.9827 19.0133 57.9827 17.92C57.9827 16.8267 58.1827 15.88 58.5827 15.08C58.996 14.2667 59.5827 13.64 60.3427 13.2C61.1027 12.76 61.9893 12.54 63.0027 12.54ZM63.0027 14.34C62.1893 14.34 61.5493 14.66 61.0827 15.3C60.616 15.94 60.3827 16.8133 60.3827 17.92C60.3827 19.0267 60.616 19.9 61.0827 20.54C61.5493 21.18 62.1893 21.5 63.0027 21.5C63.816 21.5 64.456 21.18 64.9227 20.54C65.3893 19.9 65.6227 19.0267 65.6227 17.92C65.6227 16.8133 65.3893 15.94 64.9227 15.3C64.456 14.66 63.816 14.34 63.0027 14.34Z" fill="#62109F"/>
<g clip-path="url(#clip0_85_346)">
<path d="M1.69601 13.6879V21.8688H3.3376C3.80317 21.8688 4.18711 21.4956 4.18711 21.029V17.7001H11.7118C12.1774 17.7001 12.5553 17.3269 12.5553 16.8603V13.5314H16.9057V17.8566H13.556C13.0964 17.8566 12.7125 18.2358 12.7125 18.6964V22.0253H5.18779C4.72222 22.0253 4.34432 22.3985 4.34432 22.8651V26.2H0V9.36269H3.3376C3.80317 9.36269 4.18107 8.98946 4.18107 8.52293V5.20001H16.9057V9.5192H5.18779C4.72222 9.5192 4.33827 9.89845 4.33827 10.365V13.6879H1.69601Z" fill="#62109F"/>
</g>
<defs>
<clipPath id="clip0_85_346">
<rect width="16.9057" height="21" fill="white" transform="translate(0 5.20001)"/>
</clipPath>
</defs>
</svg>
